<svg width="12" height="7" viewBox="0 0 12 7" fill="none" xmlns="http://www.w3.org/2000/svg">
<path d="M8.02759 1.32414C7.65517 1.32414 7.36552 1.03448 7.36552 0.662069C7.36552 0.310345 7.65517 0 8.02759 0H11.3379C11.6897 0 12 0.310345 12 0.662069V3.97241C12 4.34483 11.6897 4.63448 11.3379 4.63448C10.9655 4.63448 10.6759 4.34483 10.6759 3.97241V2.27586L7.15862 5.77241C6.91034 6.04138 6.47586 6.04138 6.22759 5.77241L4.03448 3.6L1.2 6.43448C0.951724 6.70345 0.517241 6.70345 0.268966 6.43448C0 6.18621 0 5.75172 0.268966 5.50345L3.57931 2.1931C3.82759 1.92414 4.26207 1.92414 4.51034 2.1931L6.70345 4.36552L9.72414 1.32414H8.02759Z" fill="#616161"/>
</svg>
